<?xml version="1.0" standalone="no"?><!DOCTYPE svg PUBLIC "-//W3C//DTD SVG 1.1//EN" "http://www.w3.org/Graphics/SVG/1.1/DTD/svg11.dtd"><svg t="1719238599309" class="icon" viewBox="0 0 1024 1024" version="1.1" xmlns="http://www.w3.org/2000/svg" p-id="4771" xmlns:xlink="http://www.w3.org/1999/xlink" width="200" height="200"><path d="M250 632c33.9 30.6 64.8 46.3 95.5 47.2h2.9-2.8c-30.8-0.8-61.7-16.6-95.6-47.2-22.5-20.3-41.3-30.8-60.2-31.4 18.8 0.6 37.7 11.1 60.2 31.4zM577.7 632c17.7 16 34.8 28 51.5 35.9 0 0 0.1 0 0.1 0.1 1.1 0.5 2.3 1.1 3.4 1.6-1.1-0.5-2.3-1-3.4-1.6 0 0-0.1 0-0.1-0.1-16.7-7.9-33.8-19.9-51.5-35.9-21.5-19.4-41.6-29.8-61.6-31-1.3-0.1-2.6-0.1-3.9-0.1 1.3 0 2.6 0 3.9 0.1 20 1.2 40.1 11.6 61.6 31z" fill="#FFDC02" p-id="4772"></path><path d="M308.9 445h10.2c5.5 0 9.9-5.6 9.9-12.5v-213c0-6.9-4.4-12.5-9.9-12.5h-10.2c-5.5 0-9.9 5.6-9.9 12.5v212.9c0 7 4.4 12.6 9.9 12.6zM501.9 445h10.2c5.5 0 9.9-5.6 9.9-12.5v-213c0-6.9-4.4-12.5-9.9-12.5h-10.2c-5.5 0-9.9 5.6-9.9 12.5v212.9c0 7 4.4 12.6 9.9 12.6zM694.9 445h10.2c5.5 0 9.9-5.6 9.9-12.5v-213c0-6.9-4.4-12.5-9.9-12.5h-10.2c-5.5 0-9.9 5.6-9.9 12.5v212.9c0 7 4.4 12.6 9.9 12.6zM694.9 161h10.2c5.5 0 9.9-5.6 9.9-12.5v-38.9c0-6.9-4.4-12.5-9.9-12.5h-10.2c-5.5 0-9.9 5.6-9.9 12.5v38.9c0 6.9 4.4 12.5 9.9 12.5zM501.9 161h10.2c5.5 0 9.9-5.6 9.9-12.5v-38.9c0-6.9-4.4-12.5-9.9-12.5h-10.2c-5.5 0-9.9 5.6-9.9 12.5v38.9c0 6.9 4.4 12.5 9.9 12.5zM308.9 161h10.2c5.5 0 9.9-5.6 9.9-12.5v-38.9c0-6.9-4.4-12.5-9.9-12.5h-10.2c-5.5 0-9.9 5.6-9.9 12.5v38.9c0 6.9 4.4 12.5 9.9 12.5z" fill="" p-id="4773"></path><path d="M121.6 580l3.8-61.9 8.7-34.3 46.6-13.2H872l22.3 13.4 6.7 28v100.6h-21l-33-17-36 5.3-24 21.7-53 35-30 12h-39l-43-17-43-33.2-45-18.8h-47l-45 34.6-46 24.4-40 19.7-56.5-20.7-34.5-23.4-29-25.6-33-9-51 10-22.3 12-12.7-13z" fill="#31C0FF" p-id="4774"></path><path d="M122 619.6l41-18.7 34-8.3 39 17 33.6 38.3 68.4 26.7h37l47-34.7 40-20.3 38-19h34l39 16.3 32.6 23 57.4 34.7 22.5 4.7 44.5-9.7 30.8-29.7 26.2-17.3 47-21.7 43 4.7 24 16v288H117z" fill="#FFDC02" p-id="4775"></path><path d="M948.5 889H918V508.9c0-29.9-23-54.9-52.9-54.9h-703c-29.9 0-54.1 24.6-55.1 54.4V889H77.5c-6.9 0-13.5 5.8-13.5 12.7v12.5c0 6.9 6.6 12.7 13.5 12.7h870.9c6.9 0 11.5-5.8 11.5-12.7v-12.5c0.1-6.9-4.5-12.7-11.4-12.7z m-60.5 8H137V509c0.7-13.8 11.9-25 25.1-25h703c12.8 0 22.9 10.9 22.9 24.9V897z" fill="" p-id="4776"></path><path d="M132 596.6s42-21.8 50.3-18.9c12-0.3 42.1-9 105.7 52.1 32.1 19.6 36.3 25.9 65.3 26.1 30-5.7 30.3-7 37.2-10.8s30.6-19.1 38.6-28c9.6-8.3 39.1-30.1 46.6-31.4 7.8-3 30.9-9.8 39.7-8.4 8.8 1.4 24.2 1.3 38.1 8.3 14 7 26.3 14.4 33.2 20.1 6.9 5.6 19.7 16.9 21.6 18.4 1.9 1.6 20.1 17.1 28.3 19.7 8.4 4.2 30.2 13.6 44.2 12.2 14.1-1.4 34.5-4.4 52.9-17.9 18.4-13.5 47.6-38.9 56.3-44.2 8.7-5.3 36.1-19.2 50.5-17.4s26.9 4 38.9 11.7c3.5 1.7 12.6 5 14.1 7.5s0 50.2 0 50.2L877 630.3s-26.5-27.6-62.2-8.3c-28 20.1-35.5 27.3-44 34.1-8.6 6.8-39.8 27.2-49.5 30.6s-40.1 13.1-62.6 5.7-52.1-22.8-71.8-39.5c-19.7-16.7-43.5-36.6-66.1-36.9-22.7-0.3-40 7.9-47.8 13.1-7.8 5.2-28.3 20.4-40.5 32.2-15 10.7-50.4 35.2-76.6 33-26.2-2.2-44.3-7.8-52.8-11.6-8.5-4.4-33-21-37-24.1-4.2-3.4-22.2-20-27-23.2-4.8-3.1-25.5-17.9-32-17.2-8.1-1.8-20.9-4-30.8-0.6-10 3.5-21.6 9.2-26.8 12.8s-19.7 11.8-19.7 11.8l2.2-45.6z" fill="#020202" p-id="4777"></path></svg>